<svg width="28" height="28" viewBox="0 0 28 28" fill="none" xmlns="http://www.w3.org/2000/svg">
<path d="M13.9998 1.43994H1.2998V3.95993H13.9998V1.43994Z" fill="#A20010"/>
<path d="M26.9197 6.83984H14.2197V9.35983H26.9197V6.83984Z" fill="#A20010"/>
<path d="M10.99 9.26001H5.25V11.97H10.99V9.26001Z" fill="#A20010"/>
<path d="M15.2095 0.709961H0.269531V1.91998H15.2095V0.709961Z" fill="#979797"/>
<path d="M1.66953 1.91992H0.269531V27.9599H1.66953V1.91992Z" fill="#979797"/>
<path d="M15.2096 1.91992H13.8096V27.9599H15.2096V1.91992Z" fill="#979797"/>
<path d="M14.5098 3.58008H1.2998V4.9801H14.5098V3.58008Z" fill="#979797"/>
<path d="M26.7598 9.26001H14.7598V10.66H26.7598V9.26001Z" fill="#979797"/>
<path d="M26.76 5.68994H15.21V6.83994H26.76V5.68994Z" fill="#979797"/>
<path d="M27.2097 5.68994H25.9297V27.9699H27.2097V5.68994Z" fill="#979797"/>
<path d="M11.5098 8.75H4.2998V9.64001H11.5098V8.75Z" fill="#979797"/>
<path d="M11.5098 11.3699H4.2998V12.5799H11.5098V11.3699Z" fill="#979797"/>
<path d="M5.57981 8.75H4.2998V12.58H5.57981V8.75Z" fill="#979797"/>
<path d="M11.5093 9.19995H10.4893V12.5799H11.5093V9.19995Z" fill="#979797"/>
<path d="M10.9295 15.97H5.18945V18.68H10.9295V15.97Z" fill="#A20010"/>
<path d="M11.4395 15.45H4.22949V16.3399H11.4395V15.45Z" fill="#979797"/>
<path d="M11.4395 18.0701H4.22949V19.2801H11.4395V18.0701Z" fill="#979797"/>
<path d="M5.50949 15.45H4.22949V19.2799H5.50949V15.45Z" fill="#979797"/>
<path d="M11.4399 15.8999H10.4199V19.2799H11.4399V15.8999Z" fill="#979797"/>
<path d="M10.7097 22.6699H4.96973V25.3799H10.7097V22.6699Z" fill="#A20010"/>
<path d="M11.2198 22.1599H4.00977V23.0499H11.2198V22.1599Z" fill="#979797"/>
<path d="M11.2198 24.77H4.00977V25.98H11.2198V24.77Z" fill="#979797"/>
<path d="M5.28977 22.1599H4.00977V25.9899H5.28977V22.1599Z" fill="#979797"/>
<path d="M11.2192 22.6001H10.1992V25.9801H11.2192V22.6001Z" fill="#979797"/>
<path d="M23.5092 14.24H18.6592V15.71H23.5092V14.24Z" fill="#979797"/>
<path d="M23.4096 18.0701H18.5596V19.5401H23.4096V18.0701Z" fill="#979797"/>
<path d="M23.5092 22.1599H18.6592V23.6299H23.5092V22.1599Z" fill="#979797"/>
</svg>
