<svg width="28" height="30" viewBox="0 0 28 30" fill="none" xmlns="http://www.w3.org/2000/svg">
<path d="M1.24023 7.76978C1.24023 7.76978 7.68023 8.85976 14.0402 0.999756C14.0402 0.999756 18.5402 7.60976 26.6502 7.81976C26.6502 7.81976 27.6102 22.7698 13.9502 29.4098C13.9502 29.4098 1.82023 25.8998 0.990234 7.44977" fill="#A20010"/>
<path d="M1.24023 7.76978C1.24023 7.76978 7.68023 8.85976 14.0402 0.999756C14.0402 0.999756 18.5402 7.60976 26.6502 7.81976C26.6502 7.81976 27.6102 22.7698 13.9502 29.4098C13.9502 29.4098 1.82023 25.8998 0.990234 7.44977" stroke="#979797" stroke-miterlimit="10"/>
<path d="M14.0304 21.2498C11.0904 21.2498 8.69043 18.8499 8.69043 15.9099C8.69043 12.9699 11.0904 10.5698 14.0304 10.5698C16.9704 10.5698 19.3704 12.9699 19.3704 15.9099C19.3704 18.8499 16.9804 21.2498 14.0304 21.2498Z" fill="white"/>
<path d="M14.0304 11.0598C16.7004 11.0598 18.8704 13.2298 18.8704 15.8998C18.8704 18.5698 16.7004 20.7398 14.0304 20.7398C11.3604 20.7398 9.19043 18.5698 9.19043 15.8998C9.19043 13.2298 11.3604 11.0598 14.0304 11.0598ZM14.0304 10.0598C10.8004 10.0598 8.19043 12.6698 8.19043 15.8998C8.19043 19.1298 10.8004 21.7398 14.0304 21.7398C17.2604 21.7398 19.8704 19.1298 19.8704 15.8998C19.8704 12.6698 17.2604 10.0598 14.0304 10.0598Z" fill="#979797"/>
<path d="M11.3203 15.4L13.3003 17.4799L16.7503 13.97" fill="white"/>
<path d="M13.29 18.1999L10.96 15.7499L11.68 15.0599L13.3 16.7599L16.39 13.6199L17.1 14.3199L13.29 18.1999Z" fill="#979797"/>
</svg>
