<svg width="21" height="25" viewBox="0 0 21 25" fill="none" xmlns="http://www.w3.org/2000/svg">
<path d="M5.7666 15.4954L7.34585 23.7867H8.36183L9.21038 18.2126H9.24046L8.40735 16.6821H11.7381L10.905 18.2126H10.9351L11.7837 23.7867H12.8005L14.3797 15.4954C14.2245 15.484 14.07 15.4727 13.9124 15.4727H13.4035C12.4087 15.9798 11.2765 16.27 10.0736 16.27C8.87064 16.27 7.73842 15.9798 6.74357 15.4727H6.23477C6.07546 15.4727 5.92103 15.484 5.7666 15.4954Z" fill="white"/>
<path d="M0 21.7074C0 18.4213 2.54321 15.7367 5.76672 15.4961C6.09657 16.2428 7.4319 17.7361 10.1344 17.7361C12.8369 17.7361 14.0902 16.2428 14.379 15.4961C17.6025 15.7367 20.1457 18.4213 20.1457 21.7074V24.7326H0V21.7074Z" fill="#A20010"/>
<path d="M0.5 21.7074C0.5 18.7948 2.67302 16.3947 5.48592 16.0273C6.07012 16.9609 7.55296 18.2361 10.1344 18.2361C12.702 18.2361 14.1257 16.9733 14.6738 16.0292C17.4799 16.4027 19.6457 18.7996 19.6457 21.7074V24.2326H0.5V21.7074Z" stroke="#979797"/>
<path d="M6.7465 15.4716C7.74054 15.9788 8.87356 16.269 10.0765 16.269C11.2762 16.2698 12.4084 15.9796 13.4032 15.4724L13.1776 15.0308C12.2517 15.5083 11.1957 15.779 10.0768 15.7798C10.0767 15.7798 10.0766 15.7798 10.0765 15.7798C10.0749 15.7798 10.0732 15.7798 10.0716 15.7798C8.95267 15.7798 7.89643 15.5101 6.97017 15.0336L6.7465 15.4716ZM6.7465 15.4716L6.97004 15.0335L13.9519 0.861786C12.3531 0.153035 10.5869 -0.109495 8.8443 0.0408703C8.1006 0.10508 7.56091 0.187172 7.51133 0.231876C4.75923 1.04466 2.75002 3.58868 2.75002 6.60331C2.75002 6.6342 2.75147 6.66436 2.75291 6.69452C2.75364 6.70961 2.75436 6.72469 2.7549 6.73986C2.75084 6.94306 2.75734 7.14219 2.77685 7.3397C1.96081 7.48193 1.33496 8.15574 1.33496 8.98153V9.52447C1.33496 10.4535 2.12011 11.2086 3.0857 11.2086H3.18893C3.71561 13.0544 5.02258 14.5914 6.7465 15.4716ZM13.9322 14.5762C15.1591 13.7309 16.0722 12.4984 16.4792 11.0722L16.5827 10.7094H16.96H17.0632C17.7705 10.7094 18.3139 10.1599 18.3139 9.52528V8.98234C18.3139 8.43387 17.9085 7.95097 17.3339 7.82974L16.8886 7.7358L16.9403 7.28364C16.9663 7.05712 16.9836 6.83561 16.9842 6.61529L16.9815 6.55637L16.9809 6.54261L16.981 6.52884C16.9825 6.36663 16.9765 6.20401 16.956 6.0316L16.9525 6.0022V5.99574C16.8495 4.94356 16.4812 3.96838 15.9157 3.13941C15.6226 2.71183 15.2719 2.32371 14.8787 1.97964L13.9322 14.5762ZM13.9322 14.5762C15.1044 13.7597 15.9907 12.5812 16.413 11.2076L16.413 11.2075C16.5235 10.848 16.6062 10.4732 16.6491 10.083L16.6491 10.083C16.6734 9.86117 16.6886 9.63213 16.6886 9.39767C16.6886 9.0653 16.6552 8.74726 16.607 8.44212M13.9322 14.5762L8.88729 0.539019C8.5222 0.570541 8.2115 0.606105 7.98968 0.638455C7.89319 0.652526 7.81842 0.665286 7.76551 0.675926L7.76183 0.679244L7.65295 0.7114C5.10721 1.46324 3.25002 3.81665 3.25002 6.60331C3.25002 6.6236 3.25067 6.63615 3.25168 6.65599C3.25247 6.67132 3.25347 6.69102 3.25458 6.72201L3.25508 6.73593L3.2548 6.74986C3.25108 6.93581 3.25709 7.11504 3.27443 7.29055L3.32006 7.75255L2.8627 7.83227C2.26006 7.93731 1.83496 8.42424 1.83496 8.98153V9.52447C1.83496 10.1592 2.37775 10.7086 3.0857 10.7086H3.18893H3.56622L3.66974 11.0714C3.99079 12.1965 4.62688 13.2012 5.4838 13.9902C4.67303 13.2353 4.06043 12.2818 3.731 11.209C3.62032 10.8488 3.53864 10.4736 3.49585 10.0846C3.47056 9.86111 3.45539 9.6319 3.45539 9.39767C3.45539 9.06455 3.48978 8.74557 3.53694 8.44289L3.53714 8.44157C3.56128 8.28934 3.59419 8.14403 3.62414 8.01367L3.66677 7.82822L3.82191 7.71802C4.22555 7.43132 4.68601 7.0644 5.09229 6.68395C5.50606 6.2965 5.83266 5.92356 6.00029 5.62574L6.18446 5.29853L6.55004 5.38417L6.43601 5.87099L6.55009 5.38418L6.5503 5.38423L6.55117 5.38443L6.55476 5.38527L6.56917 5.38863L6.62602 5.40187L6.84478 5.45243C7.03461 5.49612 7.30874 5.55879 7.6455 5.63457C8.31915 5.78617 9.24277 5.99012 10.2431 6.19968C12.2578 6.62174 14.5397 7.05691 15.7369 7.14503L15.7398 7.14525V7.14525C15.7979 7.14987 15.8531 7.15195 15.9089 7.15266L16.268 7.15721L16.3784 7.49904C16.4758 7.80087 16.5559 8.11424 16.607 8.44212M16.607 8.44212C16.607 8.44239 16.6071 8.44265 16.6071 8.44292L16.1131 8.51987L16.6069 8.44174C16.6069 8.44187 16.607 8.44199 16.607 8.44212ZM13.7491 1.31885C12.2332 0.646847 10.5523 0.395351 8.88731 0.539017L13.7491 1.31885ZM13.7491 1.31885C14.222 1.52855 14.6202 1.75389 14.8786 1.97957L13.7491 1.31885ZM16.1521 10.0284C16.1131 10.3836 16.0375 10.7274 15.9351 11.0606L16.1521 10.0284Z" stroke="#979797"/>
</svg>
