<svg width="29" height="28" viewBox="0 0 29 28" fill="none" xmlns="http://www.w3.org/2000/svg">
<path d="M2.84961 6.86987H5.97961V5.05988H12.7496L11.9396 2.91992L10.8296 1.7699L9.67961 1.06989L8.26961 0.619873L6.99961 0.779907L5.14961 1.5799L4.15961 2.52991L3.25961 4.12988L3.03961 5.36987L2.84961 6.86987Z" fill="#A20010"/>
<path d="M15.6104 8.05988H20.2703L20.4004 10.0399H25.5404C25.5404 10.0399 25.7303 8.91987 25.7003 8.79987C25.6703 8.66987 25.1504 6.88989 25.1504 6.88989L23.9503 4.49988L22.7403 3.7699L21.7204 3.25989L20.4104 3.12988L19.3304 3.60986L17.8304 4.43988L16.7404 5.59991L16.1104 6.8999L15.6104 8.05988Z" fill="#A20010"/>
<path d="M27.6299 18.3298C27.1199 17.5098 26.3399 17.2398 26.0199 17.1698L25.9499 17.1498L23.4199 17.2598L23.0099 15.7798C24.9299 14.6498 26.2699 12.2198 26.2699 9.39978C26.2699 5.50978 23.7299 2.33978 20.5999 2.33978C17.4699 2.33978 14.9299 5.50978 14.9299 9.39978C14.9299 12.0998 16.1499 14.4498 17.9399 15.6398L17.5299 17.2898H16.1699C16.1999 16.9498 16.1899 16.2698 15.7399 15.6298C14.9999 14.5898 13.7799 14.5798 13.6199 14.5898L11.5699 14.3597L11.2299 13.0198C12.8199 11.7698 13.8699 9.55975 13.8699 7.05975C13.8699 3.15975 11.3299 -0.000244141 8.19994 -0.000244141C5.06994 -0.000244141 2.52994 3.16975 2.52994 7.05975C2.52994 9.48975 3.51994 11.6298 5.01994 12.9098L4.58994 14.5198L3.13994 14.3398C2.99994 14.3298 1.77995 14.2398 1.00995 15.2298C0.499946 15.8998 0.509945 16.6398 0.539945 16.8798V22.0497H1.53994V16.8198C1.51994 16.6498 1.50994 16.2198 1.79994 15.8398C2.23994 15.2698 3.01994 15.3298 3.01994 15.3298L4.77994 15.5497C4.97994 15.9597 5.34995 16.5098 5.98995 16.9498C6.80995 17.4998 7.63994 17.5798 7.97994 17.5598C8.34994 17.6198 9.32994 17.6998 10.2899 17.0798C11.0799 16.5798 11.4499 15.8598 11.6199 15.3698L13.5699 15.5798C13.6599 15.5698 14.4599 15.5698 14.9099 16.1998C15.1999 16.6198 15.1799 17.0798 15.1599 17.3198V27.0198H16.1599V18.2898H17.6199C17.6999 18.6798 17.8899 19.2098 18.3699 19.6498C19.1999 20.4098 20.2299 20.2998 20.3299 20.2698C21.0499 20.2898 21.6499 20.1198 22.1399 19.7698C22.6299 19.4198 22.7999 19.0398 22.9399 18.7298C23.0199 18.5398 23.0899 18.3998 23.2099 18.2798L25.8399 18.1598C26.0399 18.2198 26.4799 18.3898 26.7699 18.8498C27.0499 19.3098 27.0099 19.7698 26.9699 20.0398V23.2698H27.9699L27.9599 20.1198C28.0199 19.8298 28.0899 19.0798 27.6299 18.3298ZM8.19994 0.989746C10.0199 0.989746 11.5999 2.34977 12.3699 4.32977H5.76994V6.28979H3.57995C3.86995 3.29979 5.82995 0.989746 8.19994 0.989746ZM3.53994 7.27979H6.75995V5.31976H12.6699C12.7999 5.86976 12.8599 6.4398 12.8599 7.03979C12.8599 10.3798 10.7599 13.0998 8.18994 13.0998C5.68994 13.1098 3.63994 10.5198 3.53994 7.27979ZM9.75995 16.2397C9.08995 16.6697 8.41995 16.6098 8.05995 16.5598C7.76995 16.5498 7.14995 16.5197 6.55995 16.1097C5.96995 15.7097 5.70994 15.1798 5.59994 14.8998L5.54994 14.7698L5.88994 13.4897C6.58994 13.8797 7.36994 14.1097 8.18994 14.1097C8.94994 14.1097 9.66995 13.9198 10.3299 13.5798L10.6899 14.9998C10.5899 15.3498 10.3299 15.8697 9.75995 16.2397ZM20.5999 3.33978C23.1599 3.33978 25.2499 6.02979 25.2699 9.34979H20.8499V7.30975H16.2199C16.8799 4.98975 18.5899 3.33978 20.5999 3.33978ZM15.9299 9.39978C15.9299 9.02978 15.9599 8.65975 16.0099 8.30975H19.8499V10.3498H25.2099C24.8599 13.2398 22.9299 15.4698 20.5999 15.4698C18.0299 15.4598 15.9299 12.7398 15.9299 9.39978ZM22.0399 18.3098C21.9199 18.5698 21.8399 18.7598 21.5699 18.9498C21.2599 19.1698 20.8399 19.2598 20.2699 19.2698C20.1499 19.2898 19.5399 19.3598 19.0499 18.8998C18.5899 18.4798 18.5699 17.8998 18.5699 17.7898L18.5799 17.2798H18.5599L18.8499 16.1097C19.3999 16.3297 19.9899 16.4598 20.5999 16.4598C21.1199 16.4598 21.6199 16.3698 22.0899 16.1998L22.4799 17.5998C22.2499 17.8398 22.1399 18.0998 22.0399 18.3098Z" fill="#979797"/>
</svg>
