<svg width="180" height="131" viewBox="0 0 180 131" fill="none" xmlns="http://www.w3.org/2000/svg">
<path d="M12.4465 112.627H13.3495V117.641H12.4735L12.0018 116.415C11.2673 116.967 10.5193 117.371 9.75777 117.634C8.99628 117.897 8.18089 118.025 7.32506 118.025C5.15517 118.025 3.38961 117.351 2.03512 115.997C0.680618 114.649 0 112.89 0 110.741C0 109.817 0.121297 108.961 0.357155 108.173C0.593013 107.385 0.956906 106.664 1.43536 106.017C2.18337 105.013 3.07289 104.251 4.09718 103.739C5.12822 103.227 6.27381 102.971 7.54745 102.971C8.36284 102.971 9.11758 103.085 9.81168 103.308C10.5058 103.53 11.1527 103.867 11.7457 104.325L12.1096 103.132H13.053L13.1811 107.755H12.2781C11.9614 106.583 11.4559 105.673 10.7416 105.026C10.0341 104.379 9.19845 104.056 8.24828 104.056C6.90726 104.056 5.83579 104.635 5.03387 105.788C4.23196 106.94 3.82763 108.51 3.82763 110.484C3.82763 112.459 4.21174 113.995 4.9867 115.094C5.76166 116.192 6.83313 116.745 8.20111 116.745C9.29279 116.745 10.1958 116.394 10.9168 115.694C11.6379 114.986 12.15 113.968 12.4465 112.627Z" fill="#003869"/>
<path d="M15.1484 117.721V116.845C15.9975 116.818 16.5636 116.663 16.8466 116.373C17.1229 116.09 17.2644 115.443 17.2644 114.446V106.211C17.2644 105.382 17.1229 104.823 16.8331 104.54C16.5501 104.257 15.984 104.108 15.1484 104.095V103.219C15.9234 103.252 16.7994 103.279 17.7833 103.3C18.7604 103.32 19.9465 103.327 21.3346 103.327C22.4735 103.327 23.5045 103.32 24.4345 103.306C25.3644 103.293 26.2337 103.273 27.0357 103.246L27.1637 106.992H26.2877C26.1259 105.988 25.7283 105.288 25.0882 104.897C24.448 104.506 23.3159 104.31 21.6783 104.31C21.2134 104.31 20.9034 104.364 20.7619 104.465C20.6203 104.567 20.5462 104.775 20.5462 105.085V109.776H20.9034C21.712 109.776 22.3252 109.587 22.7431 109.203C23.1609 108.825 23.4237 108.205 23.545 107.356H24.4682C24.4682 107.424 24.4682 107.532 24.4682 107.673C24.4412 108.94 24.4277 109.85 24.4277 110.382C24.4277 110.847 24.4278 111.319 24.4412 111.784C24.448 112.249 24.4614 112.734 24.4749 113.226H23.5517C23.4237 112.303 23.1676 111.662 22.7835 111.292C22.3994 110.928 21.7929 110.739 20.9708 110.739C20.9303 110.739 20.8629 110.746 20.7686 110.753C20.681 110.759 20.6069 110.766 20.5597 110.766V114.513C20.5597 115.537 20.7079 116.177 20.9977 116.42C21.2875 116.669 21.894 116.811 22.797 116.845L22.8104 117.721C22.4668 117.694 22.0759 117.673 21.6244 117.66C21.1797 117.647 20.6608 117.64 20.0678 117.64C18.6189 117.64 17.507 117.647 16.7321 117.66C15.9504 117.673 15.4247 117.694 15.1484 117.721Z" fill="#003869"/>
<path d="M28.1348 117.721V116.845C28.9839 116.818 29.5499 116.663 29.8329 116.373C30.1092 116.09 30.2507 115.443 30.2507 114.446V106.211C30.2507 105.382 30.1092 104.823 29.8195 104.54C29.5364 104.257 28.9704 104.108 28.1348 104.095V103.219C28.9097 103.252 29.7858 103.279 30.7696 103.3C31.7468 103.32 32.9328 103.327 34.321 103.327C35.4598 103.327 36.4909 103.32 37.4208 103.306C38.3508 103.293 39.2201 103.273 40.022 103.246L40.15 106.992H39.274C39.1123 105.988 38.7147 105.288 38.0745 104.897C37.4343 104.506 36.3022 104.31 34.6647 104.31C34.1997 104.31 33.8897 104.364 33.7482 104.465C33.6067 104.567 33.5325 104.775 33.5325 105.085V109.776H33.8897C34.6983 109.776 35.3116 109.587 35.7294 109.203C36.1472 108.825 36.41 108.205 36.5313 107.356H37.4545C37.4545 107.424 37.4545 107.532 37.4545 107.673C37.4276 108.94 37.4141 109.85 37.4141 110.382C37.4141 110.847 37.4141 111.319 37.4276 111.784C37.4343 112.249 37.4478 112.734 37.4613 113.226H36.538C36.41 112.303 36.1539 111.662 35.7698 111.292C35.3857 110.928 34.7792 110.739 33.9571 110.739C33.9166 110.739 33.8493 110.746 33.7549 110.753C33.6673 110.759 33.5932 110.766 33.546 110.766V114.513C33.546 115.537 33.6943 116.177 33.984 116.42C34.2738 116.669 34.8803 116.811 35.7833 116.845L35.7968 117.721C35.4531 117.694 35.0622 117.673 34.6107 117.66C34.166 117.647 33.6471 117.64 33.0541 117.64C31.6052 117.64 30.4933 117.647 29.7184 117.66C28.9434 117.673 28.4178 117.694 28.1348 117.721Z" fill="#003869"/>
<path d="M47.2461 117.703V116.854C48.0817 116.827 48.6343 116.685 48.8971 116.436C49.1599 116.187 49.2879 115.621 49.2879 114.751V106.045C49.2879 105.256 49.1667 104.744 48.9173 104.502C48.668 104.259 48.1895 104.138 47.4685 104.138H47.2461V103.262C47.9469 103.282 48.6073 103.295 49.2408 103.309C49.8742 103.322 50.4672 103.322 51.0266 103.322C51.6128 103.322 52.2193 103.316 52.8528 103.309C53.4862 103.295 54.1331 103.282 54.7935 103.262V104.138H54.5509C53.8973 104.138 53.4323 104.279 53.156 104.562C52.8865 104.845 52.7449 105.337 52.7449 106.045V114.751C52.7449 115.547 52.8865 116.086 53.1628 116.369C53.439 116.652 53.9849 116.813 54.7868 116.854V117.703C53.931 117.683 53.183 117.669 52.5495 117.656C51.9161 117.642 51.4039 117.642 51.0131 117.642C50.4942 117.642 49.9214 117.649 49.2879 117.656C48.6747 117.669 47.9874 117.683 47.2461 117.703Z" fill="#003869"/>
<path d="M56.5519 117.723V116.82C57.2999 116.739 57.812 116.517 58.0883 116.167C58.3646 115.816 58.4994 115.169 58.4994 114.226V105.202L58.25 104.879C58.0277 104.609 57.7851 104.414 57.5155 104.299C57.2527 104.185 56.8888 104.118 56.4238 104.097V103.262C56.6327 103.282 56.8753 103.295 57.1584 103.309C57.4346 103.322 57.8929 103.322 58.5196 103.322C59.1261 103.322 59.6045 103.316 59.9617 103.309C60.3121 103.295 60.6491 103.282 60.9725 103.262L69.524 113.04V106.624C69.524 105.701 69.369 105.054 69.0658 104.677C68.7626 104.299 68.2504 104.111 67.5294 104.104V103.268C68.0482 103.289 68.5065 103.302 68.9175 103.316C69.3286 103.329 69.6858 103.329 69.989 103.329C70.2586 103.329 70.609 103.322 71.0403 103.316C71.4715 103.302 71.9972 103.289 72.6239 103.268V104.097C71.8691 104.151 71.357 104.36 71.074 104.717C70.7977 105.074 70.6562 105.748 70.6562 106.746V117.986H69.4499L59.6719 106.557V114.226C59.6719 115.109 59.8269 115.762 60.1436 116.18C60.4604 116.598 60.959 116.807 61.6397 116.827V117.703C61.1612 117.683 60.676 117.669 60.1841 117.656C59.6921 117.642 59.1126 117.642 58.4252 117.642C58.0411 117.642 57.6975 117.649 57.3942 117.663C57.1044 117.676 56.8147 117.696 56.5519 117.723Z" fill="#003869"/>
<path d="M74.2207 117.642C74.2409 117.291 74.2544 116.947 74.2679 116.604C74.2813 116.26 74.2813 115.91 74.2813 115.559C74.2813 115.094 74.2746 114.656 74.2679 114.245C74.2544 113.834 74.2409 113.457 74.2207 113.1H75.2046C75.5078 114.373 75.9728 115.337 76.5995 115.97C77.2329 116.611 78.0281 116.927 78.9783 116.927C79.7802 116.927 80.4137 116.718 80.8854 116.307C81.3503 115.889 81.5862 115.33 81.5862 114.616C81.5862 114.057 81.411 113.592 81.0606 113.214C80.7102 112.837 79.9015 112.365 78.6346 111.792C77.0577 111.085 75.9661 110.377 75.3596 109.663C74.7531 108.948 74.4498 108.059 74.4498 106.988C74.4498 105.775 74.8474 104.797 75.6426 104.049C76.4378 103.308 77.4823 102.938 78.7829 102.938C79.5309 102.938 80.1845 103.025 80.7371 103.207C81.2964 103.382 81.8086 103.672 82.2736 104.063L82.5364 103.14H83.5405C83.5405 103.84 83.5472 104.521 83.5607 105.188C83.5741 105.855 83.5944 106.516 83.6213 107.169H82.6577C82.4488 106.172 82.0242 105.39 81.384 104.818C80.7438 104.252 79.9689 103.962 79.0591 103.962C78.4257 103.962 77.9136 104.144 77.5227 104.501C77.1319 104.858 76.9364 105.323 76.9364 105.896C76.9364 106.691 77.7181 107.446 79.2883 108.167C79.3287 108.187 79.3624 108.201 79.3826 108.207C81.4918 109.171 82.8598 110.013 83.5 110.728C84.1402 111.449 84.4569 112.345 84.4569 113.416C84.4569 114.791 83.9919 115.896 83.0553 116.732C82.1186 117.567 80.8786 117.985 79.3287 117.985C78.4864 117.985 77.7586 117.871 77.1453 117.648C76.5321 117.426 75.9795 117.075 75.4741 116.59L75.2113 117.635H74.2207V117.642Z" fill="#003869"/>
<path d="M87.7855 111.831V106.595C87.7855 105.578 87.6507 104.917 87.3879 104.614C87.1251 104.311 86.586 104.142 85.7773 104.088V103.253C86.4108 103.273 87.0308 103.286 87.6372 103.3C88.2437 103.313 88.8233 103.313 89.3759 103.313C90.043 103.313 90.6967 103.307 91.3368 103.293C91.977 103.28 92.6037 103.259 93.2237 103.232V104.082C92.3881 104.135 91.8288 104.311 91.5525 104.607C91.2762 104.904 91.1414 105.517 91.1414 106.447V112.013C91.1414 113.671 91.4245 114.843 91.9838 115.524C92.5431 116.205 93.4933 116.542 94.8343 116.542C95.6295 116.542 96.3303 116.42 96.9368 116.171C97.5433 115.922 98.0083 115.571 98.3317 115.12C98.5878 114.742 98.7765 114.284 98.8843 113.738C98.9988 113.192 99.0528 112.417 99.0528 111.413V106.481C99.0528 105.611 98.9113 104.998 98.6282 104.661C98.3452 104.317 97.8263 104.115 97.0648 104.041V103.246C97.4624 103.266 97.8735 103.28 98.2913 103.293C98.7091 103.307 99.1471 103.307 99.5851 103.307C100.117 103.307 100.596 103.3 101.027 103.293C101.459 103.28 101.836 103.266 102.159 103.246V104.082C101.418 104.162 100.913 104.378 100.63 104.722C100.353 105.065 100.212 105.652 100.212 106.481V111.413C100.212 112.559 100.138 113.462 99.9894 114.122C99.8412 114.783 99.6053 115.362 99.2684 115.847C98.7832 116.555 98.0891 117.087 97.1996 117.458C96.3101 117.829 95.2588 118.011 94.0526 118.011C92.8935 118.011 91.9029 117.869 91.0875 117.593C90.2654 117.316 89.5713 116.878 88.9985 116.292C88.5672 115.854 88.2505 115.281 88.0618 114.581C87.8798 113.9 87.7855 112.977 87.7855 111.831Z" fill="#003869"/>
<path d="M103.421 117.703L103.407 116.8C104.29 116.8 104.883 116.665 105.173 116.389C105.462 116.12 105.611 115.56 105.611 114.711V105.856C105.611 105.135 105.469 104.664 105.186 104.441C104.903 104.219 104.31 104.098 103.4 104.084V103.235C103.791 103.249 104.189 103.262 104.586 103.269C104.991 103.275 105.523 103.282 106.19 103.282C106.628 103.282 107.336 103.269 108.313 103.249C109.29 103.228 110.052 103.215 110.597 103.215C112.612 103.215 114.102 103.511 115.058 104.098C116.015 104.691 116.501 105.607 116.501 106.854C116.501 107.817 116.191 108.613 115.571 109.246C114.951 109.88 114.068 110.291 112.922 110.473C113.286 110.628 113.852 111.234 114.62 112.305C114.708 112.434 114.782 112.528 114.829 112.595L116.912 115.506C117.215 115.938 117.525 116.275 117.862 116.504C118.192 116.74 118.542 116.874 118.906 116.915V117.71C118.596 117.683 118.206 117.663 117.727 117.649C117.249 117.636 116.73 117.629 116.164 117.629C115.887 117.629 115.604 117.636 115.335 117.643C115.058 117.656 114.782 117.67 114.513 117.69L111.056 112.737C110.584 112.043 110.213 111.605 109.964 111.416C109.708 111.227 109.425 111.126 109.108 111.126C109.088 111.126 109.054 111.133 109.007 111.14C108.96 111.153 108.926 111.153 108.899 111.153V114.839C108.899 115.587 109.041 116.099 109.317 116.376C109.593 116.652 110.119 116.787 110.887 116.787H110.995V117.69C109.802 117.67 108.812 117.656 108.016 117.643C107.221 117.629 106.635 117.629 106.244 117.629C105.537 117.629 104.984 117.636 104.573 117.643C104.169 117.67 103.785 117.683 103.421 117.703ZM108.906 110.176C108.987 110.183 109.081 110.189 109.189 110.189C109.297 110.196 109.438 110.196 109.627 110.196C110.752 110.196 111.575 109.954 112.1 109.475C112.626 108.997 112.889 108.242 112.889 107.224C112.889 106.18 112.646 105.412 112.161 104.926C111.676 104.441 110.907 104.199 109.863 104.199C109.459 104.199 109.196 104.253 109.081 104.354C108.96 104.462 108.906 104.684 108.906 105.034V110.176Z" fill="#003869"/>
<path d="M118.334 117.702V116.826C118.846 116.785 119.271 116.63 119.614 116.368C119.958 116.105 120.248 115.7 120.477 115.155L125.639 102.984H126.717L131.529 115.114C131.778 115.734 132.061 116.165 132.378 116.408C132.694 116.651 133.132 116.792 133.698 116.833V117.709C133.078 117.688 132.458 117.675 131.839 117.661C131.219 117.648 130.605 117.648 129.999 117.648C129.392 117.648 128.786 117.655 128.173 117.661C127.559 117.675 126.946 117.688 126.313 117.709V116.833C127.088 116.799 127.593 116.718 127.822 116.603C128.058 116.482 128.173 116.273 128.173 115.977C128.173 115.815 128.132 115.593 128.058 115.303C127.984 115.013 127.876 114.696 127.741 114.353L127.31 113.214H122.505L122.141 114.049C122.013 114.359 121.912 114.656 121.831 114.952C121.751 115.249 121.71 115.485 121.71 115.66C121.71 116.064 121.852 116.361 122.141 116.55C122.424 116.738 122.869 116.833 123.469 116.833V117.709C123.017 117.688 122.566 117.675 122.128 117.661C121.69 117.648 121.259 117.648 120.827 117.648C120.416 117.648 119.998 117.655 119.581 117.661C119.17 117.668 118.752 117.682 118.334 117.702ZM122.964 112.156H126.912L125.026 107.162L122.964 112.156Z" fill="#003869"/>
<path d="M134.513 117.723V116.82C135.261 116.739 135.773 116.517 136.049 116.167C136.326 115.816 136.46 115.169 136.46 114.226V105.202L136.211 104.879C135.989 104.609 135.746 104.414 135.476 104.299C135.214 104.185 134.85 104.118 134.385 104.097V103.262C134.594 103.282 134.836 103.295 135.119 103.309C135.396 103.322 135.854 103.322 136.481 103.322C137.087 103.322 137.565 103.316 137.923 103.309C138.273 103.295 138.61 103.282 138.933 103.262L147.485 113.04V106.624C147.485 105.701 147.33 105.054 147.027 104.677C146.723 104.299 146.211 104.111 145.49 104.104V103.268C146.009 103.289 146.467 103.302 146.878 103.316C147.29 103.329 147.647 103.329 147.95 103.329C148.219 103.329 148.57 103.322 149.001 103.316C149.432 103.309 149.958 103.289 150.585 103.268V104.097C149.83 104.151 149.318 104.36 149.035 104.717C148.759 105.074 148.617 105.748 148.617 106.746V117.986H147.411L137.633 106.557V114.226C137.633 115.109 137.788 115.762 138.105 116.18C138.421 116.598 138.92 116.807 139.601 116.827V117.703C139.122 117.683 138.637 117.669 138.145 117.656C137.653 117.642 137.074 117.642 136.386 117.642C136.002 117.642 135.658 117.649 135.355 117.663C135.065 117.676 134.782 117.696 134.513 117.723Z" fill="#003869"/>
<path d="M164.554 112.627H165.457V117.641H164.581L164.109 116.415C163.375 116.967 162.627 117.371 161.865 117.634C161.104 117.897 160.288 118.025 159.432 118.025C157.263 118.025 155.497 117.351 154.143 115.997C152.788 114.649 152.107 112.89 152.107 110.741C152.107 109.817 152.229 108.961 152.465 108.173C152.7 107.385 153.064 106.664 153.543 106.017C154.291 105.013 155.18 104.251 156.205 103.739C157.236 103.227 158.381 102.971 159.655 102.971C160.47 102.971 161.225 103.085 161.919 103.308C162.613 103.53 163.26 103.867 163.853 104.325L164.217 103.132H165.16L165.288 107.755H164.385C164.069 106.583 163.563 105.673 162.849 105.026C162.141 104.379 161.306 104.056 160.356 104.056C159.015 104.056 157.943 104.635 157.141 105.788C156.339 106.94 155.935 108.51 155.935 110.484C155.935 112.459 156.319 113.995 157.094 115.094C157.869 116.192 158.941 116.745 160.309 116.745C161.4 116.745 162.303 116.394 163.024 115.694C163.739 114.986 164.251 113.968 164.554 112.627Z" fill="#003869"/>
<path d="M167.317 117.742V116.839C168.119 116.839 168.658 116.671 168.921 116.341C169.191 116.011 169.325 115.242 169.325 114.036V106.105C169.325 105.323 169.191 104.784 168.921 104.48C168.652 104.177 168.173 104.029 167.479 104.029H167.311V103.193C168.065 103.234 168.807 103.267 169.534 103.288C170.262 103.308 170.99 103.321 171.704 103.321C172.796 103.321 173.962 103.308 175.215 103.288C176.469 103.267 177.776 103.234 179.137 103.193V106.94H178.261C178.025 105.902 177.634 105.195 177.089 104.831C176.543 104.467 175.478 104.278 173.888 104.278C173.328 104.278 172.991 104.312 172.87 104.386C172.749 104.46 172.695 104.649 172.695 104.945V109.656H173.059C173.888 109.656 174.494 109.487 174.878 109.144C175.262 108.8 175.539 108.173 175.707 107.257H176.61C176.576 107.654 176.549 108.079 176.529 108.53C176.509 108.982 176.502 109.494 176.502 110.067C176.502 110.566 176.509 111.058 176.529 111.549C176.549 112.041 176.57 112.54 176.61 113.052H175.761C175.599 112.149 175.316 111.523 174.912 111.172C174.508 110.822 173.861 110.646 172.964 110.646H172.695V114.488C172.695 115.236 172.884 115.775 173.261 116.098C173.638 116.428 174.265 116.59 175.134 116.59C176.442 116.59 177.385 116.354 177.978 115.876C178.571 115.397 178.982 114.562 179.205 113.362H180V117.715C178.888 117.688 177.762 117.668 176.617 117.655C175.471 117.641 173.989 117.635 172.156 117.635H170.889C169.892 117.635 169.143 117.641 168.652 117.662C168.166 117.682 167.722 117.709 167.317 117.742Z" fill="#003869"/>
<path d="M0.369141 127.204C0.369141 125.182 1.85841 123.801 3.75201 123.801C4.91782 123.801 5.72648 124.353 6.24537 125.101L5.56475 125.485C5.18738 124.926 4.50002 124.529 3.75201 124.529C2.30991 124.529 1.21823 125.62 1.21823 127.204C1.21823 128.761 2.30991 129.879 3.75201 129.879C4.50002 129.879 5.19411 129.475 5.56475 128.922L6.2521 129.3C5.69952 130.061 4.91108 130.614 3.74527 130.614C1.85841 130.607 0.369141 129.225 0.369141 127.204Z" fill="#A20E0F"/>
<path d="M3.75242 130.85C1.64992 130.85 0.126953 129.314 0.126953 127.204C0.126953 125.088 1.64992 123.559 3.75242 123.559C4.8778 123.559 5.80775 124.044 6.44794 124.967L6.60293 125.189L5.49103 125.816L5.36299 125.627C5.01932 125.115 4.38587 124.778 3.75242 124.778C2.42488 124.778 1.46123 125.796 1.46123 127.204C1.46123 128.613 2.42488 129.63 3.75242 129.63C4.37913 129.63 5.01258 129.3 5.36299 128.781L5.48429 128.599L6.61641 129.212L6.45468 129.442C5.77406 130.372 4.86432 130.85 3.75242 130.85ZM3.75242 124.044C1.93295 124.044 0.612147 125.371 0.612147 127.198C0.612147 129.024 1.93295 130.351 3.75242 130.351C4.62173 130.351 5.32256 130.028 5.88188 129.361L5.63255 129.226C5.18105 129.772 4.46 130.109 3.75242 130.109C2.16881 130.109 0.969302 128.855 0.969302 127.191C0.969302 125.499 2.13511 124.273 3.75242 124.273C4.48021 124.273 5.18105 124.603 5.63255 125.156L5.88188 125.014C5.34278 124.374 4.62847 124.044 3.75242 124.044Z" fill="#A20010"/>
<path d="M8.31445 127.204C8.31445 125.263 9.63525 123.801 11.576 123.801C13.5168 123.801 14.8511 125.263 14.8511 127.204C14.8511 129.145 13.5168 130.607 11.576 130.607C9.64199 130.607 8.31445 129.145 8.31445 127.204ZM14.0087 127.204C14.0087 125.667 13.0518 124.529 11.5828 124.529C10.1002 124.529 9.16354 125.661 9.16354 127.204C9.16354 128.734 10.1002 129.879 11.5828 129.879C13.0518 129.872 14.0087 128.727 14.0087 127.204Z" fill="#A20E0F"/>
<path d="M11.5832 130.85C9.54806 130.85 8.07227 129.314 8.07227 127.204C8.07227 125.088 9.54806 123.559 11.5832 123.559C13.625 123.559 15.1008 125.095 15.1008 127.204C15.1008 129.314 13.6183 130.85 11.5832 130.85ZM11.5832 124.044C9.80413 124.044 8.56419 125.344 8.56419 127.198C8.56419 129.057 9.80413 130.351 11.5832 130.351C13.369 130.351 14.6089 129.051 14.6089 127.198C14.6089 125.344 13.3622 124.044 11.5832 124.044ZM11.5832 130.122C10.013 130.122 8.92135 128.923 8.92135 127.204C8.92135 125.486 10.013 124.286 11.5832 124.286C13.1533 124.286 14.2517 125.486 14.2517 127.204C14.2517 128.923 13.1533 130.122 11.5832 130.122ZM11.5832 124.772C10.2826 124.772 9.41328 125.749 9.41328 127.198C9.41328 128.646 10.2826 129.624 11.5832 129.624C12.8703 129.624 13.7665 128.626 13.7665 127.198C13.7598 125.749 12.8838 124.772 11.5832 124.772Z" fill="#A20010"/>
<path d="M23.0323 130.485V124.953L20.8017 130.485H20.4648L18.2275 124.953V130.485H17.4121V123.908H18.5847L20.6333 128.976L22.6751 123.908H23.8477V130.485H23.0323Z" fill="#A20E0F"/>
<path d="M24.0963 130.729H22.789V126.214L20.9695 130.729H20.3024L18.4762 126.214V130.729H17.1621V123.66H18.7457L20.6326 128.317L22.506 123.66H24.0896V130.729H24.0963ZM23.2742 130.244H23.6044V124.159H23.2742V130.244ZM20.6326 130.244L23.0922 124.159H22.8429L20.6393 129.637L18.4223 124.159H18.1729L20.6326 130.244ZM17.654 130.244H17.9842V124.159H17.654V130.244Z" fill="#A20010"/>
<path d="M32.292 130.485V124.953L30.0615 130.485H29.7245L27.4873 124.953V130.485H26.6719V123.908H27.8444L29.893 128.976L31.9349 123.908H33.1074V130.485H32.292Z" fill="#A20E0F"/>
<path d="M33.3572 130.729H32.0498V126.214L30.2304 130.729H29.5632L27.737 126.214V130.729H26.4297V123.66H28.0133L29.9002 128.317L31.7735 123.66H33.3572V130.729ZM32.5418 130.244H32.872V124.159H32.5418V130.244ZM29.8934 130.244L32.3531 124.159H32.1037L29.9002 129.631L27.6831 124.152H27.4338L29.8934 130.244ZM26.9149 130.244H27.2451V124.159H26.9149V130.244Z" fill="#A20010"/>
<path d="M35.9297 130.485V123.908H40.2425V124.636H36.7518V126.759H40.1751V127.487H36.7518V129.757H40.2425V130.485H35.9297Z" fill="#A20E0F"/>
<path d="M40.4855 130.729H35.6875V123.66H40.4855V124.88H36.9948V126.511H40.4181V127.73H36.9948V129.509H40.4855V130.729ZM36.1794 130.244H40.0003V130.008H36.5096V127.252H39.9329V127.016H36.5096V124.408H40.0003V124.172H36.1794V130.244Z" fill="#A20010"/>
<path d="M46.6327 130.485L44.9682 127.871H43.6474V130.485H42.832V123.908H45.4736C46.6799 123.908 47.5424 124.676 47.5424 125.889C47.5424 127.075 46.727 127.722 45.8241 127.803L47.5964 130.485H46.6327ZM46.6934 125.889C46.6934 125.141 46.1543 124.636 45.3726 124.636H43.6474V127.15H45.3726C46.1475 127.15 46.6934 126.631 46.6934 125.889Z" fill="#A20E0F"/>
<path d="M48.0539 130.729H46.4973L44.8328 128.114H43.8894V130.729H42.582V123.66H45.473C46.8342 123.66 47.7911 124.577 47.7911 125.891C47.7911 127.077 47.0633 127.764 46.2412 127.98L48.0539 130.729ZM46.7668 130.244H47.1442L45.3921 127.596L45.8032 127.562C46.4905 127.501 47.2924 127.03 47.2924 125.891C47.2924 124.853 46.5579 124.152 45.4662 124.152H43.0672V130.237H43.3974V127.623H45.0956L46.7668 130.244ZM45.3719 127.4H43.3974V124.395H45.3719C46.2951 124.395 46.942 125.008 46.942 125.891C46.9353 126.767 46.2749 127.4 45.3719 127.4ZM43.8894 126.908H45.3719C46.0188 126.908 46.4501 126.497 46.4501 125.891C46.4501 125.277 46.0256 124.887 45.3719 124.887H43.8894V126.908Z" fill="#A20010"/>
<path d="M49.8438 127.204C49.8438 125.182 51.333 123.801 53.2266 123.801C54.3924 123.801 55.2011 124.353 55.72 125.101L55.0394 125.485C54.662 124.926 53.9746 124.529 53.2266 124.529C51.7845 124.529 50.6928 125.62 50.6928 127.204C50.6928 128.761 51.7845 129.879 53.2266 129.879C53.9746 129.879 54.6687 129.475 55.0394 128.922L55.7267 129.3C55.1741 130.061 54.3857 130.614 53.2199 130.614C51.333 130.607 49.8438 129.225 49.8438 127.204Z" fill="#A20E0F"/>
<path d="M53.227 130.85C51.1245 130.85 49.6016 129.314 49.6016 127.204C49.6016 125.088 51.1245 123.559 53.227 123.559C54.3524 123.559 55.2824 124.044 55.9225 124.967L56.0775 125.189L54.9656 125.816L54.8376 125.627C54.4939 125.115 53.8605 124.778 53.227 124.778C51.8995 124.778 50.9358 125.796 50.9358 127.204C50.9358 128.613 51.8995 129.63 53.227 129.63C53.8537 129.63 54.4872 129.3 54.8376 128.781L54.9589 128.599L56.091 129.212L55.9293 129.442C55.2487 130.372 54.3389 130.85 53.227 130.85ZM53.227 124.044C51.4076 124.044 50.0868 125.371 50.0868 127.198C50.0868 129.024 51.4076 130.351 53.227 130.351C54.0963 130.351 54.7972 130.028 55.3565 129.361L55.1072 129.226C54.6557 129.772 53.9346 130.109 53.227 130.109C51.6434 130.109 50.4439 128.855 50.4439 127.191C50.4439 125.499 51.6097 124.273 53.227 124.273C53.9548 124.273 54.6557 124.603 55.1072 125.156L55.3565 125.014C54.8174 124.374 54.1031 124.044 53.227 124.044Z" fill="#A20010"/>
<path d="M58.0605 130.485V123.908H58.8759V130.485H58.0605Z" fill="#A20E0F"/>
<path d="M59.1257 130.729H57.8184V123.66H59.1257V130.729ZM58.3103 130.244H58.6405V124.159H58.3103V130.244Z" fill="#A20010"/>
<path d="M66.3962 130.485L65.8167 129.016H62.5416L61.9621 130.485H61.0254L63.6805 123.908H64.698L67.3396 130.485H66.3962ZM64.1791 124.744L62.791 128.295H65.5808L64.1791 124.744Z" fill="#A20E0F"/>
<path d="M67.6974 130.729H66.2284L65.6488 129.26H62.7107L62.1312 130.729H60.6621L63.5126 123.66H64.8604L67.6974 130.729ZM66.5653 130.244H66.9696L64.5234 124.159H64.2067L65.9386 128.546H62.4277L64.1461 124.159H63.8428L61.3899 130.244H61.7942L62.3738 128.775H65.979L66.5653 130.244ZM63.1487 128.054H65.2175L64.1798 125.419L63.1487 128.054Z" fill="#A20010"/>
<path d="M69.3613 130.485V123.908H70.1767V129.757H73.2361V130.485H69.3613Z" fill="#A20E0F"/>
<path d="M73.4859 130.729H69.1191V123.66H70.4265V129.509H73.4859V130.729ZM69.6111 130.244H72.9939V130.008H69.9345V124.159H69.6043V130.244H69.6111Z" fill="#A20010"/>
<path d="M79.4492 130.485V123.908H83.762V124.636H80.2714V126.759H83.6947V127.487H80.2714V130.485H79.4492Z" fill="#A20E0F"/>
<path d="M80.5144 130.729H79.207V123.66H84.005V124.88H80.5144V126.511H83.9377V127.73H80.5144V130.729ZM79.699 130.244H80.0292V127.245H83.4525V127.009H80.0292V124.401H83.5199V124.166H79.699V130.244Z" fill="#A20010"/>
<path d="M86.0605 130.485V123.908H86.8759V129.757H89.9354V130.485H86.0605Z" fill="#A20E0F"/>
<path d="M90.1851 130.729H85.8184V123.66H87.1257V129.509H90.1851V130.729ZM86.3036 130.244H89.6864V130.008H86.627V124.159H86.2968V130.244H86.3036Z" fill="#A20010"/>
<path d="M92.3145 130.485V123.908H96.6273V124.636H93.1366V126.759H96.5599V127.487H93.1366V129.757H96.6273V130.485H92.3145Z" fill="#A20E0F"/>
<path d="M96.8703 130.729H92.0723V123.66H96.8703V124.88H93.3796V126.511H96.8029V127.73H93.3796V129.509H96.8703V130.729ZM92.5575 130.244H96.3784V130.008H92.8877V127.252H96.311V127.016H92.8877V124.408H96.3784V124.172H92.5575V130.244Z" fill="#A20010"/>
<path d="M99.207 130.485V123.908H103.52V124.636H100.029V126.759H103.452V127.487H100.029V129.757H103.52V130.485H99.207Z" fill="#A20E0F"/>
<path d="M103.763 130.729H98.9648V123.66H103.763V124.88H100.272V126.511H103.695V127.73H100.272V129.509H103.763V130.729ZM99.45 130.244H103.271V130.008H99.7802V127.252H103.204V127.016H99.7802V124.408H103.271V124.172H99.45V130.244Z" fill="#A20010"/>
<path d="M107.725 130.485V124.636H105.643V123.908H110.629V124.636H108.54V130.485H107.725Z" fill="#A20E0F"/>
<path d="M108.79 130.729H107.483V124.88H105.4V123.66H110.879V124.88H108.79V130.729ZM107.975 130.244H108.305V124.395H110.394V124.159H105.892V124.395H107.975V130.244Z" fill="#A20010"/>
<path d="M116.836 130.485V123.908H117.651V130.485H116.836Z" fill="#A20E0F"/>
<path d="M117.901 130.729H116.594V123.66H117.901V130.729ZM117.086 130.244H117.416V124.159H117.086V130.244Z" fill="#A20010"/>
<path d="M125.13 130.485L121.296 125.236V130.485H120.48V123.908H121.316L125.103 129.043V123.908H125.919V130.485H125.13Z" fill="#A20E0F"/>
<path d="M126.168 130.729H125.009L121.546 125.992V130.729H120.238V123.66H121.445L124.861 128.296V123.66H126.168V130.729ZM125.259 130.244H125.676V124.159H125.346V129.799L121.188 124.159H120.717V130.244H121.047V124.489L125.259 130.244Z" fill="#A20010"/>
<path d="M128.346 129.554L128.838 128.92C129.262 129.412 129.97 129.864 130.9 129.864C132.072 129.864 132.45 129.23 132.45 128.718C132.45 127.02 128.555 127.97 128.555 125.618C128.555 124.533 129.518 123.785 130.826 123.785C131.823 123.785 132.598 124.129 133.15 124.715L132.659 125.315C132.167 124.762 131.473 124.526 130.758 124.526C129.976 124.526 129.41 124.951 129.41 125.571C129.41 127.053 133.305 126.204 133.305 128.657C133.305 129.601 132.652 130.591 130.879 130.591C129.741 130.605 128.892 130.167 128.346 129.554Z" fill="#A20E0F"/>
<path d="M130.873 130.849C129.775 130.849 128.811 130.451 128.164 129.724L128.029 129.569L128.831 128.537L129.027 128.767C129.249 129.023 129.876 129.629 130.9 129.629C131.864 129.629 132.201 129.164 132.201 128.733C132.201 128.167 131.621 127.985 130.671 127.729C129.62 127.446 128.306 127.095 128.306 125.633C128.306 124.427 129.364 123.551 130.819 123.551C131.837 123.551 132.699 123.894 133.326 124.555L133.474 124.71L132.659 125.7L132.47 125.485C131.951 124.899 131.244 124.777 130.752 124.777C130.098 124.777 129.647 125.107 129.647 125.579C129.647 126.017 130.179 126.186 131.048 126.422C132.16 126.725 133.542 127.102 133.542 128.672C133.542 129.676 132.848 130.849 130.873 130.849ZM128.669 129.542C129.081 129.946 129.775 130.357 130.873 130.357C132.895 130.357 133.056 129.063 133.056 128.672C133.056 127.48 131.971 127.183 130.92 126.9C130.051 126.664 129.155 126.422 129.155 125.586C129.155 124.838 129.829 124.292 130.752 124.292C131.5 124.292 132.147 124.521 132.639 124.959L132.821 124.744C132.302 124.279 131.635 124.043 130.826 124.043C129.633 124.043 128.804 124.696 128.804 125.633C128.804 126.637 129.599 126.927 130.806 127.25C131.736 127.5 132.699 127.763 132.699 128.726C132.699 129.366 132.228 130.114 130.907 130.114C130.139 130.114 129.411 129.818 128.865 129.299L128.669 129.542Z" fill="#A20010"/>
<path d="M135.807 127.931V123.908H136.636V127.911C136.636 129.117 137.276 129.872 138.489 129.872C139.702 129.872 140.355 129.111 140.355 127.911V123.908H141.184V127.925C141.184 129.562 140.274 130.607 138.495 130.607C136.71 130.607 135.807 129.549 135.807 127.931Z" fill="#A20E0F"/>
<path d="M138.489 130.85C136.656 130.85 135.564 129.759 135.564 127.933V123.66H136.885V127.912C136.885 129.017 137.458 129.631 138.496 129.631C139.54 129.631 140.113 129.024 140.113 127.912V123.66H141.434V127.919C141.427 129.752 140.329 130.85 138.489 130.85ZM136.05 124.152V127.933C136.05 129.496 136.912 130.359 138.489 130.359C140.066 130.359 140.935 129.496 140.935 127.919V124.152H140.598V127.912C140.598 129.294 139.81 130.123 138.489 130.123C137.175 130.123 136.387 129.301 136.387 127.912V124.152H136.05Z" fill="#A20010"/>
<path d="M147.809 130.485L146.144 127.871H144.823V130.485H144.008V123.908H146.649C147.856 123.908 148.718 124.676 148.718 125.889C148.718 127.075 147.903 127.722 147 127.803L148.772 130.485H147.809ZM147.869 125.889C147.869 125.141 147.33 124.636 146.548 124.636H144.823V127.15H146.548C147.323 127.15 147.869 126.631 147.869 125.889Z" fill="#A20E0F"/>
<path d="M149.23 130.729H147.673L146.009 128.114H145.065V130.729H143.758V123.66H146.649C148.01 123.66 148.967 124.577 148.967 125.891C148.967 127.077 148.239 127.764 147.417 127.98L149.23 130.729ZM147.943 130.244H148.32L146.568 127.596L146.979 127.562C147.666 127.501 148.468 127.03 148.468 125.891C148.468 124.853 147.734 124.152 146.642 124.152H144.243V130.237H144.573V127.623H146.271L147.943 130.244ZM146.541 127.4H144.566V124.395H146.541C147.464 124.395 148.111 125.008 148.111 125.891C148.111 126.767 147.451 127.4 146.541 127.4ZM145.065 126.908H146.548C147.195 126.908 147.626 126.497 147.626 125.891C147.626 125.277 147.201 124.887 146.548 124.887H145.065V126.908Z" fill="#A20010"/>
<path d="M155.98 130.485L155.401 129.016H152.126L151.546 130.485H150.609L153.264 123.908H154.282L156.924 130.485H155.98ZM153.763 124.744L152.375 128.295H155.165L153.763 124.744Z" fill="#A20E0F"/>
<path d="M157.281 130.729H155.812L155.233 129.26H152.295L151.715 130.729H150.246L153.097 123.66H154.444L157.281 130.729ZM156.149 130.244H156.554L154.107 124.159H153.791L155.523 128.546H152.012L153.73 124.159H153.427L150.974 130.244H151.378L151.958 128.775H155.563L156.149 130.244ZM152.733 128.054H154.802L153.764 125.419L152.733 128.054Z" fill="#A20010"/>
<path d="M163.71 130.485L159.876 125.236V130.485H159.061V123.908H159.896L163.683 129.043V123.908H164.499V130.485H163.71Z" fill="#A20E0F"/>
<path d="M164.748 130.729H163.589L160.126 125.992V130.729H158.818V123.66H160.025L163.441 128.296V123.66H164.748V130.729ZM163.839 130.244H164.257V124.159H163.926V129.799L159.769 124.159H159.297V130.244H159.627V124.489L163.839 130.244Z" fill="#A20010"/>
<path d="M167.061 127.204C167.061 125.182 168.55 123.801 170.443 123.801C171.609 123.801 172.418 124.353 172.937 125.101L172.256 125.485C171.879 124.926 171.191 124.529 170.443 124.529C169.001 124.529 167.91 125.62 167.91 127.204C167.91 128.761 169.001 129.879 170.443 129.879C171.191 129.879 171.886 129.475 172.256 128.922L172.943 129.3C172.391 130.061 171.602 130.614 170.437 130.614C168.55 130.607 167.061 129.225 167.061 127.204Z" fill="#A20E0F"/>
<path d="M170.444 130.85C168.341 130.85 166.818 129.314 166.818 127.204C166.818 125.088 168.341 123.559 170.444 123.559C171.569 123.559 172.499 124.044 173.139 124.967L173.294 125.189L172.182 125.816L172.054 125.627C171.711 125.115 171.077 124.778 170.444 124.778C169.116 124.778 168.153 125.796 168.153 127.204C168.153 128.613 169.116 129.63 170.444 129.63C171.071 129.63 171.704 129.3 172.054 128.781L172.176 128.599L173.308 129.212L173.146 129.442C172.465 130.372 171.556 130.85 170.444 130.85ZM170.444 124.044C168.624 124.044 167.304 125.371 167.304 127.198C167.304 129.024 168.624 130.351 170.444 130.351C171.313 130.351 172.014 130.028 172.573 129.361L172.324 129.226C171.872 129.772 171.151 130.109 170.444 130.109C168.86 130.109 167.661 128.855 167.661 127.191C167.661 125.499 168.827 124.273 170.444 124.273C171.172 124.273 171.872 124.603 172.324 125.156L172.573 125.014C172.034 124.374 171.32 124.044 170.444 124.044Z" fill="#A20010"/>
<path d="M175.273 130.485V123.908H179.586V124.636H176.096V126.759H179.519V127.487H176.096V129.757H179.586V130.485H175.273Z" fill="#A20E0F"/>
<path d="M179.829 130.729H175.031V123.66H179.829V124.88H176.339V126.511H179.762V127.73H176.339V129.509H179.829V130.729ZM175.516 130.244H179.337V130.008H175.847V127.252H179.27V127.016H175.847V124.408H179.337V124.172H175.516V130.244Z" fill="#A20010"/>
<path d="M114.614 63.2571C114.614 62.8801 124.871 52.1947 124.871 52.1947C124.871 52.1947 124.877 52.1947 124.888 52.1947C125.374 49.9445 125.631 47.6144 125.631 45.2157C125.631 26.9974 110.862 12.2285 92.6435 12.2285C74.4251 12.2285 59.6562 26.9974 59.6562 45.2157C59.6562 63.4341 74.4251 78.203 92.6435 78.203C100.456 78.203 107.629 75.4845 113.283 70.9442C113.5 68.0372 114.614 63.5198 114.614 63.2571Z" fill="#A20010"/>
<path d="M137.865 45.4824C137.865 45.4824 121.166 57.7898 125.632 76.8991C125.632 76.9048 137.865 64.7059 137.865 45.4824Z" fill="#003869"/>
<path d="M71.6568 7.77148H65.6602V74.654H71.6568V7.77148Z" fill="white"/>
<path d="M83.649 7.77148H77.6523V74.654H83.649V7.77148Z" fill="white"/>
<path d="M95.6431 7.77148H89.6465V74.654H95.6431V7.77148Z" fill="white"/>
<path d="M107.641 7.77148H101.645V74.654H107.641V7.77148Z" fill="white"/>
<path d="M119.635 7.77148H113.639V74.654H119.635V7.77148Z" fill="white"/>
<path d="M137.619 40.5259C135.272 17.7558 116.037 0 92.6502 0C67.6756 0 47.4355 20.2458 47.4355 45.2147C47.4355 53.7413 49.7999 61.7197 53.9062 68.5273C55.3854 67.7392 57.7669 66.5056 60.8452 64.9864C57.1787 59.1097 55.214 52.3135 55.214 45.2147C55.214 35.2145 59.109 25.8084 66.1793 18.7381C73.2497 11.6677 82.6558 7.77279 92.6559 7.77279C102.656 7.77279 112.062 11.6677 119.133 18.7381C125.34 24.946 129.093 32.9415 129.921 41.5653L137.619 40.5259Z" fill="#003869"/>
<path d="M72.209 90.4345H91.2669C91.2669 90.4345 127.555 47.1616 128.754 47.2302L129.954 45.4883L96.5039 57.0418C96.5039 57.0418 77.4289 71.2567 77.1491 71.7707C76.8692 72.2847 72.209 90.4345 72.209 90.4345Z" fill="white"/>
<path d="M139.772 42.1484C139.772 42.1484 86.6133 44.9012 40.6562 90.4357H74.3459C75.2483 88.6138 77.2415 84.9473 80.6738 80.3899H90.4569C88.6237 83.4796 86.9217 86.8205 85.4197 90.4357H121.125C121.131 90.4357 105.46 61.4176 139.772 42.1484ZM92.6557 76.9061H83.4551C86.1736 73.6793 89.5431 70.1727 93.6608 66.649H100.811C97.9898 69.6473 95.2257 73.0568 92.6557 76.9061ZM103.096 64.3017H96.5107C99.2862 62.1087 102.365 59.9328 105.763 57.8368H110.497C108.087 59.7043 105.586 61.8517 103.096 64.3017ZM112.673 56.2091H108.504C110.931 54.8156 113.501 53.4735 116.237 52.1942H118.767C116.888 53.3136 114.832 54.6443 112.673 56.2091ZM119.898 50.5609C122.696 49.373 125.643 48.2536 128.755 47.2313C128.755 47.2313 125.928 48.2307 121.628 50.5609H119.898Z" fill="#003869"/>
</svg>