<svg width="160" height="116" viewBox="0 0 160 116" fill="none" xmlns="http://www.w3.org/2000/svg">
<path d="M149.474 34.9688C149.005 32.6775 148.535 30.3674 148.084 28.0762C134.994 35.6073 121.904 43.1384 108.795 50.6696L117.002 57.1302L118.861 62.3137L142.544 53.5618C144.854 47.3641 147.164 41.1665 149.474 34.9688Z" fill="#5D6061"/>
<path d="M118.298 63.5157L116.213 57.6937L107.123 50.557L148.742 26.6113L150.451 35.0439L143.276 54.2756L118.298 63.5157ZM110.466 50.8011L117.791 56.5669L119.425 61.1118L141.811 52.8294L148.497 34.9125L147.408 29.5599L110.466 50.8011Z" fill="#343838"/>
<path d="M116.066 39.2893C121.927 39.2893 126.677 34.3115 126.677 28.171C126.677 22.0306 121.927 17.0527 116.066 17.0527C110.206 17.0527 105.455 22.0306 105.455 28.171C105.455 34.3115 110.206 39.2893 116.066 39.2893Z" fill="#343838"/>
<path d="M107.764 38.182C107.858 45.0182 100.158 50.6149 97.8665 49.4693C96.5894 48.8308 97.5472 46.3704 97.2655 37.8627C97.0025 29.8808 96.0259 27.721 97.1716 27.0637C99.3689 25.7866 107.67 31.1579 107.764 38.182Z" fill="#343838"/>
<path d="M26.6115 37.8984L55.9285 55.6651L53.1114 72.3614L23.1934 55.6463L26.6115 37.8984Z" fill="#CDCED0"/>
<path d="M72.1004 49.9562L74.3728 62.4455L54.2773 71.6294L55.9113 55.6656C55.9113 55.6656 71.6683 49.6557 71.6683 49.9562C71.6871 50.2567 72.1004 49.9562 72.1004 49.9562Z" fill="#A3A5A8"/>
<path d="M25.1102 103.953L5.57812 92.8534L6.59231 75.6689L23.2509 54.6719L54.7465 72.4762L26.1432 89.9987L25.1102 103.953ZM7.51255 91.8017L23.4575 100.854L24.3403 88.9094L51.0466 72.5513L23.7205 57.1134L8.41406 76.4014L7.51255 91.8017Z" fill="#5F6062"/>
<path d="M34.9324 115.69L34.6132 115.615C33.5051 115.352 7.58747 109.136 0.112681 95.5007L0 95.2942L0.0375411 78.7106C0.0938838 78.5228 1.44614 74.1281 7.75651 73.0576L8.07576 74.9169C3.43688 75.7057 2.10346 78.5416 1.87809 79.1426V94.8058C8.67677 106.788 31.7397 112.967 34.7258 113.718L42.4635 109.981C41.1677 92.8714 52.9997 89.3782 53.1124 89.3406C56.1361 88.0072 58.7841 87.9696 60.9064 89.2655C63.9865 91.1624 64.8503 95.3693 65.0945 97.1723C66.9162 97.2286 68.3249 96.7779 69.2827 95.8952C70.6725 94.5993 70.6537 92.6648 70.6537 92.6461V92.0451L71.1983 91.7822L97.9798 78.7106L96.4023 32.397C93.8293 19.7387 88.2138 15.5881 88.1575 15.5506L64.9818 2.08465C48.1917 9.67213 28.8662 35.8903 27.1008 38.313L24.3963 56.0233L22.5371 55.7416L25.2791 37.6181L25.4106 37.4303C26.2745 36.2283 46.539 8.03817 64.6438 0.187763L65.0758 0L89.1341 13.9917C89.4534 14.2171 95.4632 18.5555 98.2052 32.1904L99.8391 79.8751L72.4567 93.2471C72.3628 94.1673 71.9683 95.9139 70.541 97.2661C69.0573 98.6747 66.8975 99.257 64.118 99.0128L63.3104 98.9377L63.2728 98.1113C63.2728 98.055 62.9535 92.74 59.8923 90.8431C58.3334 89.8853 56.2675 89.9604 53.7321 91.0873C53.1686 91.2563 42.8768 94.3739 44.3792 110.432L44.4355 111.089L34.9324 115.69Z" fill="#5F6062"/>
<path d="M7.51264 77.3027C7.49386 77.791 25.0164 88.4962 25.0164 88.4962L24.1337 102.075L6.70508 92.1584L7.51264 77.3027Z" fill="#5F6062"/>
<path d="M35.5343 114.863H33.6562V97.5845L33.9192 97.3028C34.6892 96.514 53.0381 77.8645 62.5601 78.766C64.3818 78.9351 65.8091 79.7802 66.7858 81.2639C67.368 82.1091 72.6079 89.6965 72.5703 92.9456L70.6922 92.9268C70.711 90.9361 67.3491 85.3581 65.2269 82.3156C64.5508 81.3015 63.6306 80.7568 62.3723 80.6441C54.3153 79.8929 37.8256 96.0445 35.5155 98.3545V114.863H35.5343Z" fill="#5F6062"/>
<path d="M59.6103 76.4086L24.6191 92.5137L25.4044 94.2197L60.3956 78.1147L59.6103 76.4086Z" fill="#5F6062"/>
<path d="M66.3207 84.0019L59.8398 88.8828L60.9697 90.383L67.4506 85.5021L66.3207 84.0019Z" fill="#5F6062"/>
<path d="M98.2264 65.6732L67.0586 82.3457L67.9445 84.0018L99.1123 67.3293L98.2264 65.6732Z" fill="#5F6062"/>
<path d="M43.8428 98.4254L34.0098 104.119L34.9509 105.744L44.7839 100.051L43.8428 98.4254Z" fill="#5F6062"/>
<path d="M24.7936 101.892L24.3652 103.721L33.7455 105.918L34.1739 104.09L24.7936 101.892Z" fill="#5F6062"/>
<path d="M6.70503 83.125H0.789062V85.0031H6.70503V83.125Z" fill="#5F6062"/>
<path d="M5.74581 88.7578H1.87695V90.6359H5.74581V88.7578Z" fill="#5F6062"/>
<path d="M7.23236 95.9778L6.3125 97.6152L22.4583 106.685L23.3781 105.048L7.23236 95.9778Z" fill="#5F6062"/>
<path d="M54.3131 72.8698L53.5432 71.1607L73.1316 62.3337L71.7794 50.9337L55.9847 56.6056L26.6113 39.1581L27.5692 37.543L56.1724 54.5396L73.357 48.3608L75.16 63.4982L54.3131 72.8698Z" fill="#5F6062"/>
<path d="M55.0987 56.4037L52.2246 72.6797L54.0742 73.0063L56.9482 56.7303L55.0987 56.4037Z" fill="#5F6062"/>
<path d="M57.5473 55.3662L56.2891 53.9764C80.5915 31.7962 87.4277 13.3909 87.4841 13.2031L89.2495 13.8417C88.9678 14.6117 82.2254 32.8291 57.5473 55.3662Z" fill="#5F6062"/>
<path d="M96.6126 30.3459L55.7188 54.5742L56.676 56.1899L97.5699 31.9617L96.6126 30.3459Z" fill="#5F6062"/>
<path d="M58.8047 61.1504H63.6314V74.1092L59.8376 74.8792L58.8047 61.1504Z" fill="#5F6062"/>
<path d="M62.1442 62.4456L60.2848 62.1263C60.2848 62.1075 60.6416 59.8726 59.4584 58.5579C58.7635 57.7879 57.618 57.4498 56.0404 57.5437L55.9277 55.6657C58.1063 55.5342 59.7777 56.0788 60.867 57.2996C62.67 59.2904 62.163 62.3141 62.1442 62.4456Z" fill="#5F6062"/>
<path d="M70.8984 88.0257L80.7021 82.4102L81.6598 88.0257L72.7577 91.8382L70.8984 88.0257Z" fill="#5F6062"/>
<path d="M105.455 77.3966H99.0502V75.5185H103.576V66.9731C103.276 66.3909 101.98 64.3626 98.9375 64.0058L99.1629 62.1465C103.764 62.6911 105.323 66.2407 105.398 66.3909L105.473 66.7478V77.3966H105.455Z" fill="#5F6062"/>
<path d="M109.455 74.7288H105.473V72.8507H107.577V65.8267C106.131 59.2909 99.4446 59.9482 99.1441 59.967L98.9375 58.1077C99.0314 58.0889 107.671 57.2062 109.436 65.5262L109.455 65.714V74.7288Z" fill="#5F6062"/>
<path d="M109.979 72.9077L109.284 71.1611L111.895 70.1281V63.198C110.28 56.8688 103.124 56.5871 103.049 56.5871L103.105 54.709C103.199 54.709 111.838 55.0659 113.735 62.8599L113.754 63.0853V71.3864L109.979 72.9077Z" fill="#5F6062"/>
<path d="M114.488 70.6159L113.718 68.9069L117.004 67.4232V62.4463C115.99 55.1218 108.29 52.4924 108.215 52.4736L108.797 50.6895C109.154 50.8021 117.68 53.6944 118.864 62.3336V68.644L114.488 70.6159Z" fill="#5F6062"/>
<path d="M38.465 43.9848C39.5956 43.9848 40.5122 43.0683 40.5122 41.9377C40.5122 40.8071 39.5956 39.8906 38.465 39.8906C37.3344 39.8906 36.418 40.8071 36.418 41.9377C36.418 43.0683 37.3344 43.9848 38.465 43.9848Z" fill="#5F6062"/>
<path d="M42.2933 46.5376C43.4239 46.5376 44.3403 45.6211 44.3403 44.4905C44.3403 43.3599 43.4239 42.4434 42.2933 42.4434C41.1627 42.4434 40.2461 43.3599 40.2461 44.4905C40.2461 45.6211 41.1627 46.5376 42.2933 46.5376Z" fill="#5F6062"/>
<path d="M46.5783 49.563C47.7089 49.563 48.6255 48.6465 48.6255 47.5159C48.6255 46.3853 47.7089 45.4688 46.5783 45.4688C45.4477 45.4688 44.5312 46.3853 44.5312 47.5159C44.5312 48.6465 45.4477 49.563 46.5783 49.563Z" fill="#5F6062"/>
<path d="M55.928 53.3579C57.0586 53.3579 57.9751 52.4414 57.9751 51.3108C57.9751 50.1802 57.0586 49.2637 55.928 49.2637C54.7974 49.2637 53.8809 50.1802 53.8809 51.3108C53.8809 52.4414 54.7974 53.3579 55.928 53.3579Z" fill="#5F6062"/>
<path d="M31.0257 38.8012C32.1563 38.8012 33.0727 37.8847 33.0727 36.7541C33.0727 35.6235 32.1563 34.707 31.0257 34.707C29.8951 34.707 28.9785 35.6235 28.9785 36.7541C28.9785 37.8847 29.8951 38.8012 31.0257 38.8012Z" fill="#5F6062"/>
<path d="M97.6426 57.1319L147.75 27.7587L129.702 16.0957L98.3187 34.2944" fill="#5D6061"/>
<path d="M98.1129 57.9389L97.1738 56.3238L145.967 27.7205L129.684 17.2032L98.789 35.1014L97.8499 33.4674L129.74 15.0059L149.554 27.7956L98.1129 57.9389Z" fill="#343838"/>
<path d="M128.836 67.8362C134.696 67.8362 139.447 62.8583 139.447 56.7179C139.447 50.5774 134.696 45.5996 128.836 45.5996C122.975 45.5996 118.225 50.5774 118.225 56.7179C118.225 62.8583 122.975 67.8362 128.836 67.8362Z" fill="#343838"/>
<path d="M148.855 55.7405C154.716 55.7405 159.467 50.7626 159.467 44.6222C159.467 38.4817 154.716 33.5039 148.855 33.5039C142.995 33.5039 138.244 38.4817 138.244 44.6222C138.244 50.7626 142.995 55.7405 148.855 55.7405Z" fill="#343838"/>
<path d="M134.732 60.3521C137.339 56.7202 137.403 52.3052 134.875 50.4907C132.347 48.6763 128.184 50.1496 125.577 53.7814C122.971 57.4132 122.907 61.8283 125.435 63.6428C127.963 65.4572 132.125 63.9839 134.732 60.3521Z" fill="#A7A8A9"/>
<path d="M54.746 113.305C60.6064 113.305 65.3571 108.327 65.3571 102.187C65.3571 96.0462 60.6064 91.0684 54.746 91.0684C48.8856 91.0684 44.1348 96.0462 44.1348 102.187C44.1348 108.327 48.8856 113.305 54.746 113.305Z" fill="#343838"/>
<path d="M60.6284 105.813C63.2351 102.181 63.299 97.7661 60.7711 95.9517C58.2431 94.1372 54.0806 95.6105 51.4738 99.2423C48.8671 102.874 48.8032 107.289 51.3312 109.104C53.8591 110.918 58.0216 109.445 60.6284 105.813Z" fill="#A7A8A9"/>
<path d="M154.103 49.3501C156.71 45.7183 156.774 41.3032 154.246 39.4888C151.718 37.6743 147.555 39.1476 144.948 42.7795C142.342 46.4113 142.278 50.8264 144.806 52.6408C147.334 54.4553 151.496 52.982 154.103 49.3501Z" fill="#A7A8A9"/>
</svg>
