<svg width="28" height="23" viewBox="0 0 28 23" fill="none" xmlns="http://www.w3.org/2000/svg">
<path d="M6.49949 18.5198H3.47949V21.0998H6.49949V18.5198Z" fill="#A20010"/>
<path d="M5.99949 19.0198V20.5898H3.97949V19.0198H5.99949ZM6.99949 18.0198H2.97949V21.5898H6.99949V18.0198Z" fill="#303130"/>
<path d="M24.2495 19.0898H21.2295V21.6599H24.2495V19.0898Z" fill="#A20010"/>
<path d="M23.7495 19.5898V21.1599H21.7295V19.5898H23.7495ZM24.7495 18.5898H20.7295V22.1599H24.7495V18.5898Z" fill="#303130"/>
<path d="M26.4297 10.1399V17.5899H1.42969V10.1399H26.4297ZM27.4297 9.13989H0.429688V18.5899H27.4297V9.13989Z" fill="#303130"/>
<path d="M3.05965 9.78979L2.13965 9.39984L5.83965 0.599854H22.3496L25.6597 9.4198L24.7297 9.76984L21.6597 1.59985H6.49965L3.05965 9.78979Z" fill="#303130"/>
<path d="M16.4392 3.13989H10.6992V4.15991H16.4392V3.13989Z" fill="#303130"/>
<path d="M17.7395 11.9399H10.4395V15.09H17.7395V11.9399Z" fill="#A20010"/>
<path d="M17.2395 12.4399V14.59H10.9395V12.4399H17.2395ZM18.2395 11.4399H9.93945V15.59H18.2395V11.4399Z" fill="#303130"/>
<path d="M5.43949 15.8599C4.35949 15.8599 3.47949 14.98 3.47949 13.9C3.47949 12.82 4.35949 11.9399 5.43949 11.9399C6.51949 11.9399 7.39949 12.82 7.39949 13.9C7.39949 14.98 6.51949 15.8599 5.43949 15.8599Z" fill="#A20010"/>
<path d="M5.43949 12.4399C6.23949 12.4399 6.89949 13.09 6.89949 13.9C6.89949 14.71 6.24949 15.3599 5.43949 15.3599C4.63949 15.3599 3.97949 14.71 3.97949 13.9C3.97949 13.09 4.63949 12.4399 5.43949 12.4399ZM5.43949 11.4399C4.07949 11.4399 2.97949 12.54 2.97949 13.9C2.97949 15.26 4.07949 16.3599 5.43949 16.3599C6.79949 16.3599 7.89949 15.26 7.89949 13.9C7.89949 12.54 6.79949 11.4399 5.43949 11.4399Z" fill="#303130"/>
<path d="M22.2901 15.8599C21.2101 15.8599 20.3301 14.98 20.3301 13.9C20.3301 12.82 21.2101 11.9399 22.2901 11.9399C23.3701 11.9399 24.2501 12.82 24.2501 13.9C24.2501 14.98 23.3701 15.8599 22.2901 15.8599Z" fill="#A20010"/>
<path d="M22.2901 12.4399C23.0901 12.4399 23.7501 13.09 23.7501 13.9C23.7501 14.71 23.1001 15.3599 22.2901 15.3599C21.4901 15.3599 20.8301 14.71 20.8301 13.9C20.8301 13.09 21.4901 12.4399 22.2901 12.4399ZM22.2901 11.4399C20.9301 11.4399 19.8301 12.54 19.8301 13.9C19.8301 15.26 20.9301 16.3599 22.2901 16.3599C23.6501 16.3599 24.7501 15.26 24.7501 13.9C24.7501 12.54 23.6501 11.4399 22.2901 11.4399Z" fill="#303130"/>
</svg>
